<svg width="17" height="25" viewBox="0 0 17 25" fill="none" xmlns="http://www.w3.org/2000/svg">
<path d="M4.18572 0.933969C3.31257 0.257442 2.05631 0.416834 1.37978 1.28998C0.703258 2.16313 0.86265 3.41939 1.7358 4.09591L4.18572 0.933969ZM1.7358 4.09591L14.45 13.947L16.8999 10.7851L4.18572 0.933969L1.7358 4.09591Z" fill="#5E5E5E"/>
<path d="M14.5284 14.0031L15.8383 12.4918L12.8158 9.87187L11.5058 11.3831L14.5284 14.0031ZM3.42716 20.7031C2.70368 21.5378 2.79379 22.8009 3.62845 23.5244C4.4631 24.2479 5.72622 24.1577 6.4497 23.3231L3.42716 20.7031ZM11.5058 11.3831L3.42716 20.7031L6.4497 23.3231L14.5284 14.0031L11.5058 11.3831Z" fill="#5E5E5E"/>
</svg>
