<svg width="9" height="13" viewBox="0 0 9 13" fill="none" xmlns="http://www.w3.org/2000/svg">
<path d="M2.24511 0.443753C1.80854 0.10549 1.18041 0.185186 0.842149 0.621759C0.503885 1.05833 0.583581 1.68646 1.02015 2.02473L2.24511 0.443753ZM1.02015 2.02473L7.70535 7.20451L8.93031 5.62354L2.24511 0.443753L1.02015 2.02473Z" fill="white"/>
<path d="M7.67595 7.24099L8.33095 6.48536L6.81968 5.17537L6.16468 5.93101L7.67595 7.24099ZM1.91687 10.8315C1.55513 11.2488 1.60019 11.8804 2.01751 12.2421C2.43484 12.6039 3.0664 12.5588 3.42814 12.1415L1.91687 10.8315ZM6.16468 5.93101L1.91687 10.8315L3.42814 12.1415L7.67595 7.24099L6.16468 5.93101Z" fill="white"/>
</svg>
